<svg width="454" height="454" viewBox="0 0 454 454" fill="none" xmlns="http://www.w3.org/2000/svg">
<g clip-path="url(#clip0_411_3)">
<path d="M367.524 92.122C363.316 71.077 349.846 62.659 329.642 54.24C309.724 45.941 261.994 36.011 226.77 35.733C191.548 36.012 143.819 45.941 123.9 54.24C103.696 62.658 90.2272 71.076 86.0182 92.122L70.8662 208.794V369.56H96.9622V394.771C96.9622 425.51 141.946 425.51 141.946 394.771V369.56H224.994H225.257H311.598V394.771C311.598 425.51 356.581 425.51 356.581 394.771V369.56H382.677V208.794L367.524 92.122ZM162.625 65.184H225.256H290.918C303.546 65.184 303.546 84.125 290.918 84.125H225.103H162.625C149.997 84.125 149.997 65.184 162.625 65.184ZM119.472 319.162C107.554 319.162 97.8922 309.5 97.8922 297.582C97.8922 285.664 107.554 276.003 119.472 276.003C131.39 276.003 141.052 285.664 141.052 297.582C141.052 309.5 131.39 319.162 119.472 319.162ZM225.256 221.09H110.797C99.5912 221.09 97.2452 213.039 98.3452 204.928L110.138 120.307C111.758 110.026 115.243 103.248 128.582 103.248H225.103H324.96C338.3 103.248 341.784 110.026 343.403 120.307L355.198 204.928C356.298 213.039 353.952 221.09 342.746 221.09H225.256ZM334.07 319.162C322.152 319.162 312.491 309.5 312.491 297.582C312.491 285.664 322.152 276.003 334.07 276.003C345.988 276.003 355.649 285.664 355.649 297.582C355.649 309.5 345.988 319.162 334.07 319.162Z" fill="#E00198"/>
</g>
<defs>
<clipPath id="clip0_411_3">
<rect width="453.543" height="453.543" fill="white"/>
</clipPath>
</defs>
</svg>
