<svg width="454" height="454" viewBox="0 0 454 454" fill="none" xmlns="http://www.w3.org/2000/svg">
<g clip-path="url(#clip0_416_2)">
<rect width="453.543" height="453.543" rx="60" fill="#E00198"/>
<path d="M344.365 114.93C340.856 97.4154 329.624 90.4094 312.777 83.4026C296.169 76.4957 256.37 68.2314 226.999 68C197.629 68.2322 157.831 76.4957 141.222 83.4026C124.375 90.4086 113.144 97.4146 109.634 114.93L97 212.032V345.831H118.76V366.813C118.76 392.396 156.269 392.396 156.269 366.813V345.831H225.518H225.737H297.732V366.813C297.732 392.396 335.24 392.396 335.24 366.813V345.831H357V212.032L344.365 114.93ZM173.512 92.5109H225.736H280.488C291.018 92.5109 291.018 108.275 280.488 108.275H225.609H173.512C162.982 108.275 162.982 92.5109 173.512 92.5109ZM137.53 303.887C127.592 303.887 119.535 295.845 119.535 285.926C119.535 276.008 127.592 267.967 137.53 267.967C147.467 267.967 155.524 276.008 155.524 285.926C155.524 295.845 147.467 303.887 137.53 303.887ZM225.736 222.265H130.296C120.952 222.265 118.996 215.565 119.913 208.814L129.747 138.388C131.097 129.831 134.003 124.19 145.126 124.19H225.609H308.873C319.997 124.19 322.902 129.831 324.252 138.388L334.087 208.814C335.004 215.565 333.048 222.265 323.704 222.265H225.736ZM316.47 303.887C306.532 303.887 298.476 295.845 298.476 285.926C298.476 276.008 306.532 267.967 316.47 267.967C326.407 267.967 334.463 276.008 334.463 285.926C334.463 295.845 326.407 303.887 316.47 303.887Z" fill="white"/>
</g>
<defs>
<clipPath id="clip0_416_2">
<rect width="453.543" height="453.543" rx="60" fill="white"/>
</clipPath>
</defs>
</svg>
